<svg xmlns="http://www.w3.org/2000/svg" version="1.1" xmlns:xlink="http://www.w3.org/1999/xlink" xmlns:svgjs="http://svgjs.dev/svgjs" width="696" height="373"><svg width="696" height="373" viewBox="0 0 696 373" fill="none" xmlns="http://www.w3.org/2000/svg">
<path d="M345.295 3.40519C340.707 10.8437 331.042 25.3645 321.287 39.3953C286.633 89.327 272.691 112.623 267.034 130.261C262.625 143.936 260.932 155.027 260.932 169.904C260.888 183.534 262.001 192.665 265.208 205.315C271.667 231.105 285.43 255.068 304.183 273.242C314.338 283.041 324.271 290.836 330.641 293.954C336.832 296.983 339.772 297.695 346.23 297.695C353.58 297.695 358.702 296.493 365.384 293.152C384.581 283.62 409.169 256.271 422.175 230.036C434.201 205.716 437.586 183.4 433.266 157.209C430.772 142.199 425.961 128.079 417.275 110.128C408.322 91.6878 401.24 79.9732 376.296 42.0678C369.036 31.0213 360.217 17.3914 356.698 11.7791C353.224 6.12226 350.061 1.17808 349.66 0.732658C348.413 -0.692691 347.478 -0.158185 345.295 3.40519Z" fill="#FF683F"></path>
<path d="M232.604 19.5325C229.664 21.3141 227.214 25.1448 223.517 33.8305C217.192 48.6185 211.446 68.8406 204.586 99.9756C200.622 117.882 200.444 119.084 201.424 120.91C202.538 122.915 204.007 123.895 211.624 127.681C224.363 134.006 231.535 138.282 240.933 145.23C247.881 150.397 248.683 150.175 250.064 142.825C253.583 124.34 263.694 103.673 280.486 80.6443C283.07 77.0809 285.52 73.473 285.965 72.6267C287.791 69.0633 286.41 64.7873 280.976 57.4378C277.368 52.5382 265.387 40.6454 258.26 34.8995C248.55 27.1046 236.345 18.6862 234.697 18.6862C234.296 18.6862 233.361 19.087 232.604 19.5325Z" fill="#FF683F"></path>
<path d="M456.651 20.9961C445.693 27.6329 425.694 43.8017 417.943 52.3983C411.529 59.4805 408.456 64.1574 408.055 67.5427C407.743 70.3488 408.233 71.2842 413.088 77.3865C420.972 87.3194 427.253 96.9405 432.464 107.096C438.166 118.143 441.284 126.962 443.956 139.345C444.713 142.863 445.604 146.204 446.005 146.783C447.475 149.01 450.058 148.03 461.283 141.082C470.637 135.247 478.075 130.882 485.113 127.051C488.498 125.18 491.616 123.176 492.106 122.597C493.531 120.771 493.665 117.92 492.596 110.882C487.875 79.7472 471.483 30.3054 462.931 21.4861C461.684 20.1943 460.437 19.1253 460.214 19.1253C459.947 19.1253 458.388 19.9716 456.651 20.9961Z" fill="#FF683F"></path>
<path d="M175.545 21.3945C174.788 22.1517 174.832 25.0469 175.679 31.1492C176.258 35.1135 176.347 38.4987 176.169 46.2935C175.901 57.2955 174.966 64.9122 172.115 78.3639C167.795 98.8088 167.884 109.454 172.338 111.637C174.387 112.661 187.928 116.715 190.11 116.982C192.026 117.205 192.293 117.116 193.005 116.091C193.495 115.334 193.896 113.285 194.164 110.122C195.411 95.9581 197.371 87.3169 202.894 71.6826C207.793 57.83 208.506 54.8011 208.283 49.2333C208.016 43.1756 206.858 40.6812 201.958 35.7816C197.638 31.5055 193.763 28.9221 185.166 24.557C178.351 21.1272 176.436 20.5036 175.545 21.3945Z" fill="#FF683F"></path>
<path d="M515.001 22.0247C508.409 24.3409 491.973 35.7882 487.118 41.4451C483.287 45.8547 483.287 47.4583 486.984 58.5047C492.507 74.9853 496.65 93.7821 498.342 110.129C499.144 117.924 500.213 118.948 505.914 117.479C507.741 116.989 512.64 115.519 516.827 114.138C525.914 111.154 526.849 110.485 526.849 106.788C526.849 103.136 525.691 94.6284 523.286 80.1522C518.921 53.9614 518.208 45.0084 519.5 31.2894C519.945 26.6571 520.168 22.5146 520.034 22.1138C519.678 21.1784 517.54 21.1338 515.001 22.0247Z" fill="#FF683F"></path>
<path d="M95.1017 102.291C94.4781 102.87 94.8344 103.894 97.5069 109.685C105.302 126.522 109.979 140.107 121.515 179.482C125.212 192.132 130.112 207.143 133.096 215.116C144.098 244.158 158.842 265.627 178.796 281.751C180.489 283.132 186.502 287.319 192.204 291.105C216.969 307.675 242.492 317.34 270.954 320.948C279.595 322.062 297.769 322.062 305.207 320.993C321.643 318.543 325.83 313.332 317.991 304.958C316.877 303.755 313.136 300.503 309.661 297.742C290.419 282.286 275.408 264.202 266.055 245.182C259.952 232.844 257.369 225.138 251.356 201.753C247.124 185.273 244.763 178.146 241.111 170.797C232.425 153.381 218.439 141.131 195.678 130.976C177.282 122.736 144.499 112.714 109.578 104.696C98.2196 102.068 95.7252 101.667 95.1017 102.291Z" fill="#FF683F"></path>
<path d="M576.736 107.5C548.229 114.716 538.519 117.388 525.958 121.575C489.968 133.557 466.895 148.479 453.399 168.567C449.301 174.67 448.41 176.719 447.92 180.95C446.718 191.195 445.203 200.86 443.778 206.874C435.003 244.556 414.38 276.805 384.982 298.942C376.43 305.401 373.178 310.122 374.515 314.265C375.539 317.294 379.904 319.432 388.323 320.991C394.425 322.104 414.781 322.104 424.402 320.946C463.376 316.358 497.407 300.011 525.067 272.573C538.207 259.522 548.185 246.026 556.47 230.08C563.819 216.005 566.046 209.635 574.509 178.589C585.422 138.546 589.431 126.564 597.76 109.014C600.433 103.447 600.7 101.932 599.141 102.021C598.695 102.021 588.629 104.516 576.736 107.5Z" fill="#FF683F"></path>
<path d="M86.5496 239.21C66.9956 240.457 42.8538 244.511 19.2909 250.524C5.082 254.132 0.315985 255.602 0.00418952 256.448C-0.0848948 256.804 1.25137 257.606 3.56756 258.631C14.2131 263.352 23.0325 268.474 32.2973 275.423C42.2747 282.906 47.6198 287.761 68.0646 307.983C100.491 340.054 110.291 348.027 128.464 357.158C135.145 360.454 137.818 361.568 145.212 364.106C187.794 378.716 241.735 374.084 285.876 352.08C292.245 348.918 302.401 343.038 303.693 341.791C304.717 340.811 303.693 340.365 299.506 340.098C297.501 339.965 291.176 339.564 285.43 339.163C273.983 338.45 264.54 336.98 253.984 334.352C207.972 322.816 166.993 293.418 140.802 253.286C135.724 245.535 134.7 244.555 129.488 242.863C118.843 239.344 103.966 238.052 86.5496 239.21Z" fill="#FF683F"></path>
<path d="M578.473 240.105C567.115 240.684 567.694 240.462 561.681 247.856C545.067 268.345 527.25 286.206 509.968 299.658C504.756 303.756 493.086 311.685 487.207 315.203C458.299 332.397 429.124 340.682 397.588 340.726C394.247 340.726 391.396 340.904 391.263 341.082C390.416 342.463 404.447 350.926 416.162 356.093C435.404 364.601 452.464 369.055 475.18 371.549C482.04 372.306 505.87 372.306 513.041 371.549C532.684 369.5 553.975 364.2 565.289 358.498C582.705 349.768 594.197 340.548 622.392 312.665C640.966 294.313 646.222 289.369 654.552 282.287C664.173 274.136 676.11 266.252 685.865 261.664C693.348 258.1 694.907 257.254 695.085 256.72C695.308 256.051 689.829 254.092 679.139 251.018C654.017 243.847 628.673 240.283 599.453 239.883C592.237 239.749 582.794 239.883 578.473 240.105Z" fill="#FF683F"></path>
</svg><style>@media (prefers-color-scheme: light) { :root { filter: none; } }
@media (prefers-color-scheme: dark) { :root { filter: none; } }
</style></svg>