<svg width="932" height="715" viewBox="0 0 932 715" fill="none" xmlns="http://www.w3.org/2000/svg">
<path d="M463.295 3.40519C458.707 10.8437 449.042 25.3645 439.287 39.3953C404.633 89.327 390.691 112.623 385.034 130.261C380.625 143.936 378.932 155.027 378.932 169.904C378.888 183.534 380.001 192.665 383.208 205.315C389.667 231.105 403.43 255.068 422.183 273.242C432.338 283.041 442.271 290.836 448.641 293.954C454.832 296.983 457.772 297.695 464.23 297.695C471.58 297.695 476.702 296.493 483.384 293.152C502.581 283.62 527.169 256.271 540.175 230.036C552.201 205.716 555.586 183.4 551.266 157.209C548.772 142.199 543.961 128.079 535.275 110.128C526.322 91.6878 519.24 79.9732 494.296 42.0678C487.036 31.0213 478.217 17.3914 474.698 11.7791C471.224 6.12226 468.061 1.17808 467.66 0.732658C466.413 -0.692691 465.478 -0.158185 463.295 3.40519Z" fill="#FF683F"/>
<path d="M350.604 19.5325C347.664 21.3141 345.214 25.1448 341.517 33.8305C335.192 48.6185 329.446 68.8406 322.586 99.9756C318.622 117.882 318.444 119.084 319.424 120.91C320.538 122.915 322.007 123.895 329.624 127.681C342.363 134.006 349.535 138.282 358.933 145.23C365.881 150.397 366.683 150.175 368.064 142.825C371.583 124.34 381.694 103.673 398.486 80.6443C401.07 77.0809 403.52 73.473 403.965 72.6267C405.791 69.0633 404.41 64.7873 398.976 57.4378C395.368 52.5382 383.387 40.6454 376.26 34.8995C366.55 27.1046 354.345 18.6862 352.697 18.6862C352.296 18.6862 351.361 19.087 350.604 19.5325Z" fill="#FF683F"/>
<path d="M574.651 20.9961C563.693 27.6329 543.694 43.8017 535.943 52.3983C529.529 59.4805 526.456 64.1574 526.055 67.5427C525.743 70.3488 526.233 71.2842 531.088 77.3865C538.972 87.3194 545.253 96.9405 550.464 107.096C556.166 118.143 559.284 126.962 561.956 139.345C562.713 142.863 563.604 146.204 564.005 146.783C565.475 149.01 568.058 148.03 579.283 141.082C588.637 135.247 596.075 130.882 603.113 127.051C606.498 125.18 609.616 123.176 610.106 122.597C611.531 120.771 611.665 117.92 610.596 110.882C605.875 79.7472 589.483 30.3054 580.931 21.4861C579.684 20.1943 578.437 19.1253 578.214 19.1253C577.947 19.1253 576.388 19.9716 574.651 20.9961Z" fill="#FF683F"/>
<path d="M293.545 21.3945C292.788 22.1517 292.832 25.0469 293.679 31.1492C294.258 35.1135 294.347 38.4987 294.169 46.2935C293.901 57.2955 292.966 64.9122 290.115 78.3639C285.795 98.8088 285.884 109.454 290.338 111.637C292.387 112.661 305.928 116.715 308.11 116.982C310.026 117.205 310.293 117.116 311.005 116.091C311.495 115.334 311.896 113.285 312.164 110.122C313.411 95.9581 315.371 87.3169 320.894 71.6826C325.793 57.83 326.506 54.8011 326.283 49.2333C326.016 43.1756 324.858 40.6812 319.958 35.7816C315.638 31.5055 311.763 28.9221 303.166 24.557C296.351 21.1272 294.436 20.5036 293.545 21.3945Z" fill="#FF683F"/>
<path d="M633.001 22.0247C626.409 24.3409 609.973 35.7882 605.118 41.4451C601.287 45.8547 601.287 47.4583 604.984 58.5047C610.507 74.9853 614.65 93.7821 616.342 110.129C617.144 117.924 618.213 118.948 623.914 117.479C625.741 116.989 630.64 115.519 634.827 114.138C643.914 111.154 644.849 110.485 644.849 106.788C644.849 103.136 643.691 94.6284 641.286 80.1522C636.921 53.9614 636.208 45.0084 637.5 31.2894C637.945 26.6571 638.168 22.5146 638.034 22.1138C637.678 21.1784 635.54 21.1338 633.001 22.0247Z" fill="#FF683F"/>
<path d="M213.102 102.291C212.478 102.87 212.834 103.894 215.507 109.685C223.302 126.522 227.979 140.107 239.515 179.482C243.212 192.132 248.112 207.143 251.096 215.116C262.098 244.158 276.842 265.627 296.796 281.751C298.489 283.132 304.502 287.319 310.204 291.105C334.969 307.675 360.492 317.34 388.954 320.948C397.595 322.062 415.769 322.062 423.207 320.993C439.643 318.543 443.83 313.332 435.991 304.958C434.877 303.755 431.136 300.503 427.661 297.742C408.419 282.286 393.408 264.202 384.055 245.182C377.952 232.844 375.369 225.138 369.356 201.753C365.124 185.273 362.763 178.146 359.111 170.797C350.425 153.381 336.439 141.131 313.678 130.976C295.282 122.736 262.499 112.714 227.578 104.696C216.22 102.068 213.725 101.667 213.102 102.291Z" fill="#FF683F"/>
<path d="M694.736 107.5C666.229 114.716 656.519 117.388 643.958 121.575C607.968 133.557 584.895 148.479 571.399 168.567C567.301 174.67 566.41 176.719 565.92 180.95C564.718 191.195 563.203 200.86 561.778 206.874C553.003 244.556 532.38 276.805 502.982 298.942C494.43 305.401 491.178 310.122 492.515 314.265C493.539 317.294 497.904 319.432 506.323 320.991C512.425 322.104 532.781 322.104 542.402 320.946C581.376 316.358 615.407 300.011 643.067 272.573C656.207 259.522 666.185 246.026 674.47 230.08C681.819 216.005 684.046 209.635 692.509 178.589C703.422 138.546 707.431 126.564 715.76 109.014C718.433 103.447 718.7 101.932 717.141 102.021C716.695 102.021 706.629 104.516 694.736 107.5Z" fill="#FF683F"/>
<path d="M204.55 239.21C184.996 240.457 160.854 244.511 137.291 250.524C123.082 254.132 118.316 255.602 118.004 256.448C117.915 256.804 119.251 257.606 121.568 258.631C132.213 263.352 141.032 268.474 150.297 275.423C160.275 282.906 165.62 287.761 186.065 307.983C218.491 340.054 228.291 348.027 246.464 357.158C253.145 360.454 255.818 361.568 263.212 364.106C305.794 378.716 359.735 374.084 403.876 352.08C410.245 348.918 420.401 343.038 421.693 341.791C422.717 340.811 421.693 340.365 417.506 340.098C415.501 339.965 409.176 339.564 403.43 339.163C391.983 338.45 382.54 336.98 371.984 334.352C325.972 322.816 284.993 293.418 258.802 253.286C253.724 245.535 252.7 244.555 247.488 242.863C236.843 239.344 221.966 238.052 204.55 239.21Z" fill="#FF683F"/>
<path d="M696.473 240.105C685.115 240.684 685.694 240.462 679.681 247.856C663.067 268.345 645.25 286.206 627.968 299.658C622.756 303.756 611.086 311.685 605.207 315.203C576.299 332.397 547.124 340.682 515.588 340.726C512.247 340.726 509.396 340.904 509.263 341.082C508.416 342.463 522.447 350.926 534.162 356.093C553.404 364.601 570.464 369.055 593.18 371.549C600.04 372.306 623.87 372.306 631.041 371.549C650.684 369.5 671.975 364.2 683.289 358.498C700.705 349.768 712.197 340.548 740.392 312.665C758.966 294.313 764.222 289.369 772.552 282.287C782.173 274.136 794.11 266.252 803.865 261.664C811.348 258.1 812.907 257.254 813.085 256.72C813.308 256.051 807.829 254.092 797.139 251.018C772.017 243.847 746.673 240.283 717.453 239.883C710.237 239.749 700.794 239.883 696.473 240.105Z" fill="#FF683F"/>
<path d="M92.2 437V408H154.8V437H92.2ZM92.2 491.8V464.6H152.8V491.8H92.2ZM69.8 408H102.2V548H69.8V408ZM188.284 521L190.684 495.2H260.084L262.284 521H188.284ZM224.884 459.4L205.284 504.6L206.884 512L189.484 548H151.284L224.884 399.2L298.684 548H260.284L243.484 513.4L244.684 504.8L224.884 459.4ZM313.355 408H347.155V519H403.355V548H313.355V408ZM419.019 408H454.019V548H419.019V408ZM501.619 408H541.219L484.419 473.6L544.219 548H503.219L444.219 474.6L501.619 408ZM558.863 408H593.263V548H558.863V408ZM657.925 484.6H692.925L736.725 548H697.125L657.925 484.6ZM622.925 408H656.725V548H622.925V408ZM644.125 436.6V408H673.925C685.925 408 695.925 409.933 703.925 413.8C711.925 417.667 717.992 423.067 722.125 430C726.258 436.8 728.325 444.733 728.325 453.8C728.325 462.733 726.258 470.667 722.125 477.6C717.992 484.4 711.925 489.733 703.925 493.6C695.925 497.467 685.925 499.4 673.925 499.4H644.125V473.2H671.525C676.058 473.2 679.925 472.533 683.125 471.2C686.458 469.733 688.992 467.667 690.725 465C692.458 462.2 693.325 458.867 693.325 455C693.325 451.133 692.458 447.867 690.725 445.2C688.992 442.4 686.458 440.267 683.125 438.8C679.925 437.333 676.058 436.6 671.525 436.6H644.125ZM752.417 408H787.417V548H752.417V408ZM835.017 408H874.617L817.817 473.6L877.617 548H836.617L777.617 474.6L835.017 408Z" fill="white"/>
<path d="M0.75 596.625V580.5H65.75V596.625H42.125V668H24.25V596.625H0.75ZM81.7813 629.5V613.375H146.031V629.5H81.7813ZM134.656 580.5H152.531V668H134.656V580.5ZM75.9063 580.5H93.7813V668H75.9063V580.5ZM183.49 648.125L185.615 634H227.615L229.74 648.125H183.49ZM206.365 608.875L193.24 639L193.615 643L182.115 668H161.99L206.365 575.375L250.74 668H230.49L219.24 643.75L219.49 639.25L206.365 608.875ZM260.232 580.5H278.357V668H260.232V580.5ZM353.945 618.875L348.32 668H329.695L342.695 576.125L379.32 632.625L415.945 576.125L428.945 668H410.32L404.695 618.875L379.32 659.875L353.945 618.875ZM455.097 648.125L457.222 634H499.222L501.347 648.125H455.097ZM477.972 608.875L464.847 639L465.222 643L453.722 668H433.597L477.972 575.375L522.347 668H502.097L490.847 643.75L491.097 639.25L477.972 608.875ZM539.464 638.625C541.297 641.875 543.297 644.708 545.464 647.125C547.714 649.542 550.172 651.417 552.839 652.75C555.506 654.083 558.381 654.75 561.464 654.75C565.047 654.75 567.964 653.833 570.214 652C572.464 650.167 573.589 647.667 573.589 644.5C573.589 641.75 572.881 639.542 571.464 637.875C570.131 636.208 568.089 634.75 565.339 633.5C562.672 632.167 559.381 630.75 555.464 629.25C553.381 628.5 550.964 627.5 548.214 626.25C545.547 624.917 543.006 623.25 540.589 621.25C538.172 619.167 536.172 616.667 534.589 613.75C533.006 610.75 532.214 607.167 532.214 603C532.214 598 533.464 593.708 535.964 590.125C538.547 586.458 542.006 583.667 546.339 581.75C550.756 579.75 555.672 578.75 561.089 578.75C566.672 578.75 571.464 579.708 575.464 581.625C579.547 583.458 582.922 585.833 585.589 588.75C588.339 591.583 590.464 594.542 591.964 597.625L577.964 605.375C576.797 603.292 575.381 601.417 573.714 599.75C572.131 598 570.297 596.625 568.214 595.625C566.131 594.542 563.756 594 561.089 594C557.589 594 554.964 594.833 553.214 596.5C551.464 598.083 550.589 599.958 550.589 602.125C550.589 604.292 551.297 606.208 552.714 607.875C554.131 609.458 556.297 611 559.214 612.5C562.131 613.917 565.797 615.375 570.214 616.875C573.047 617.875 575.756 619.125 578.339 620.625C581.006 622.125 583.381 623.958 585.464 626.125C587.631 628.208 589.297 630.708 590.464 633.625C591.714 636.458 592.339 639.75 592.339 643.5C592.339 647.75 591.506 651.542 589.839 654.875C588.172 658.208 585.881 661.042 582.964 663.375C580.047 665.625 576.756 667.333 573.089 668.5C569.506 669.75 565.714 670.375 561.714 670.375C556.381 670.375 551.381 669.375 546.714 667.375C542.131 665.292 538.131 662.5 534.714 659C531.297 655.5 528.631 651.708 526.714 647.625L539.464 638.625ZM614.537 638.625C616.37 641.875 618.37 644.708 620.537 647.125C622.787 649.542 625.245 651.417 627.912 652.75C630.579 654.083 633.454 654.75 636.537 654.75C640.12 654.75 643.037 653.833 645.287 652C647.537 650.167 648.662 647.667 648.662 644.5C648.662 641.75 647.954 639.542 646.537 637.875C645.204 636.208 643.162 634.75 640.412 633.5C637.745 632.167 634.454 630.75 630.537 629.25C628.454 628.5 626.037 627.5 623.287 626.25C620.62 624.917 618.079 623.25 615.662 621.25C613.245 619.167 611.245 616.667 609.662 613.75C608.079 610.75 607.287 607.167 607.287 603C607.287 598 608.537 593.708 611.037 590.125C613.62 586.458 617.079 583.667 621.412 581.75C625.829 579.75 630.745 578.75 636.162 578.75C641.745 578.75 646.537 579.708 650.537 581.625C654.62 583.458 657.995 585.833 660.662 588.75C663.412 591.583 665.537 594.542 667.037 597.625L653.037 605.375C651.87 603.292 650.454 601.417 648.787 599.75C647.204 598 645.37 596.625 643.287 595.625C641.204 594.542 638.829 594 636.162 594C632.662 594 630.037 594.833 628.287 596.5C626.537 598.083 625.662 599.958 625.662 602.125C625.662 604.292 626.37 606.208 627.787 607.875C629.204 609.458 631.37 611 634.287 612.5C637.204 613.917 640.87 615.375 645.287 616.875C648.12 617.875 650.829 619.125 653.412 620.625C656.079 622.125 658.454 623.958 660.537 626.125C662.704 628.208 664.37 630.708 665.537 633.625C666.787 636.458 667.412 639.75 667.412 643.5C667.412 647.75 666.579 651.542 664.912 654.875C663.245 658.208 660.954 661.042 658.037 663.375C655.12 665.625 651.829 667.333 648.162 668.5C644.579 669.75 640.787 670.375 636.787 670.375C631.454 670.375 626.454 669.375 621.787 667.375C617.204 665.292 613.204 662.5 609.787 659C606.37 655.5 603.704 651.708 601.787 647.625L614.537 638.625ZM694.11 648.125L696.235 634H738.235L740.36 648.125H694.11ZM716.985 608.875L703.86 639L704.235 643L692.735 668H672.61L716.985 575.375L761.36 668H741.11L729.86 643.75L730.11 639.25L716.985 608.875ZM809.568 635.5V621.25H852.693C852.943 627.917 852.152 634.208 850.318 640.125C848.568 646.042 845.777 651.292 841.943 655.875C838.193 660.375 833.527 663.917 827.943 666.5C822.36 669.083 815.985 670.375 808.818 670.375C802.068 670.375 795.818 669.25 790.068 667C784.402 664.75 779.443 661.583 775.193 657.5C771.027 653.417 767.777 648.542 765.443 642.875C763.193 637.208 762.068 631 762.068 624.25C762.068 617.5 763.235 611.333 765.568 605.75C767.985 600.083 771.318 595.25 775.568 591.25C779.818 587.25 784.818 584.167 790.568 582C796.318 579.833 802.568 578.75 809.318 578.75C815.318 578.75 820.693 579.583 825.443 581.25C830.277 582.917 834.527 585.25 838.193 588.25C841.943 591.167 845.152 594.667 847.818 598.75L832.568 607.625C830.402 603.792 827.36 600.708 823.443 598.375C819.61 595.958 814.902 594.75 809.318 594.75C804.068 594.75 799.277 595.958 794.943 598.375C790.61 600.708 787.152 604.083 784.568 608.5C782.068 612.917 780.818 618.167 780.818 624.25C780.818 630.25 782.068 635.542 784.568 640.125C787.068 644.625 790.443 648.125 794.693 650.625C799.027 653.125 803.902 654.375 809.318 654.375C812.902 654.375 816.11 653.917 818.943 653C821.777 652 824.193 650.625 826.193 648.875C828.277 647.125 830.027 645.125 831.443 642.875C832.86 640.625 833.943 638.167 834.693 635.5H809.568ZM878.788 668V652.875H922.913V668H878.788ZM878.788 595.625V580.5H922.913V595.625H878.788ZM878.788 629V614.125H920.413V629H878.788ZM867.288 580.5H884.538V668H867.288V580.5Z" fill="white"/>
</svg>
