<svg width="904" height="217" viewBox="0 0 904 217" fill="none" xmlns="http://www.w3.org/2000/svg">
<path d="M136.204 27.3331C134.406 30.2485 130.618 35.9395 126.795 41.4384C113.213 61.0078 107.749 70.1378 105.532 77.0508C103.804 82.4101 103.141 86.7569 103.141 92.5876C103.123 97.9294 103.56 101.508 104.817 106.466C107.348 116.574 112.742 125.965 120.092 133.088C124.072 136.929 127.965 139.983 130.461 141.205C132.888 142.393 134.04 142.672 136.571 142.672C139.451 142.672 141.459 142.201 144.078 140.891C151.602 137.155 161.238 126.437 166.335 116.155C171.049 106.623 172.375 97.8771 170.682 87.6123C169.705 81.7293 167.819 76.1954 164.415 69.1602C160.906 61.933 158.13 57.3418 148.355 42.4858C145.509 38.1565 142.053 32.8146 140.673 30.6151C139.312 28.398 138.072 26.4603 137.915 26.2857C137.426 25.7271 137.06 25.9366 136.204 27.3331Z" fill="white"/>
<path d="M92.0379 33.6523C90.8857 34.3506 89.9256 35.8519 88.4767 39.256C85.9978 45.0518 83.7458 52.9773 81.0574 65.1797C79.5037 72.1975 79.4339 72.6688 79.818 73.3846C80.2544 74.1701 80.8305 74.5542 83.8156 76.038C88.8083 78.5169 91.6189 80.1928 95.3024 82.9161C98.0257 84.9411 98.3399 84.8539 98.8811 81.9734C100.26 74.7288 104.223 66.6287 110.804 57.6034C111.817 56.2068 112.777 54.7928 112.951 54.4611C113.667 53.0646 113.126 51.3887 110.996 48.5083C109.582 46.588 104.886 41.927 102.093 39.675C98.2875 36.62 93.5043 33.3206 92.8584 33.3206C92.7013 33.3206 92.3347 33.4777 92.0379 33.6523Z" fill="white"/>
<path d="M179.847 34.2216C175.553 36.8227 167.714 43.1596 164.677 46.5288C162.163 49.3045 160.958 51.1375 160.801 52.4642C160.679 53.564 160.871 53.9306 162.774 56.3222C165.864 60.2151 168.325 63.9859 170.368 67.9661C172.602 72.2954 173.824 75.7519 174.872 80.605C175.168 81.9841 175.518 83.2934 175.675 83.5203C176.251 84.3932 177.263 84.0091 181.662 81.2858C185.328 78.9989 188.244 77.2881 191.002 75.7868C192.329 75.0536 193.551 74.2681 193.743 74.0411C194.301 73.3254 194.354 72.2081 193.935 69.4499C192.084 57.2474 185.66 37.8701 182.308 34.4136C181.82 33.9074 181.331 33.4884 181.244 33.4884C181.139 33.4884 180.528 33.8201 179.847 34.2216Z" fill="white"/>
<path d="M69.6756 34.3847C69.3788 34.6814 69.3962 35.8161 69.7279 38.2078C69.9549 39.7614 69.9898 41.0882 69.92 44.1432C69.8152 48.4551 69.4486 51.4402 68.3314 56.7122C66.638 64.725 66.6729 68.8973 68.4187 69.7527C69.2217 70.1542 74.5286 71.7428 75.384 71.8475C76.1347 71.9348 76.2394 71.8999 76.5187 71.4984C76.7108 71.2016 76.8679 70.3986 76.9726 69.1591C77.4614 63.6078 78.2295 60.2211 80.3942 54.0937C82.3145 48.6645 82.5938 47.4775 82.5065 45.2953C82.4018 42.9212 81.9479 41.9436 80.0276 40.0233C78.3343 38.3474 76.8155 37.3349 73.4463 35.6241C70.7754 34.2799 70.0247 34.0355 69.6756 34.3847Z" fill="white"/>
<path d="M202.716 34.6246C200.132 35.5324 193.69 40.0188 191.788 42.2359C190.286 43.9641 190.286 44.5926 191.735 48.9219C193.9 55.381 195.523 62.7479 196.187 69.1547C196.501 72.2096 196.92 72.6112 199.154 72.0351C199.87 71.843 201.79 71.267 203.431 70.7258C206.993 69.5562 207.359 69.2943 207.359 67.8454C207.359 66.4139 206.905 63.0796 205.963 57.4061C204.252 47.1413 203.973 43.6324 204.479 38.2557C204.653 36.4401 204.741 34.8166 204.688 34.6595C204.549 34.2929 203.711 34.2755 202.716 34.6246Z" fill="white"/>
<path d="M38.1481 66.0832C37.9037 66.3101 38.0434 66.7116 39.0908 68.981C42.1458 75.5798 43.9788 80.9042 48.5001 96.3362C49.9491 101.294 51.8693 107.177 53.039 110.302C57.3509 121.684 63.1291 130.098 70.9499 136.418C71.6133 136.959 73.97 138.6 76.2045 140.084C85.9106 146.578 95.9135 150.366 107.069 151.78C110.455 152.216 117.578 152.216 120.493 151.797C126.935 150.837 128.576 148.795 125.503 145.513C125.067 145.041 123.6 143.767 122.239 142.685C114.697 136.627 108.814 129.54 105.148 122.085C102.757 117.25 101.744 114.23 99.3874 105.065C97.729 98.6056 96.8038 95.8125 95.3723 92.9321C91.9682 86.1064 86.4867 81.3057 77.5661 77.3255C70.3564 74.0959 57.508 70.1681 43.8216 67.0258C39.3701 65.9959 38.3925 65.8388 38.1481 66.0832Z" fill="white"/>
<path d="M226.911 68.1321C215.739 70.9601 211.933 72.0075 207.01 73.6485C192.905 78.3444 183.862 84.1926 178.573 92.0657C176.967 94.4573 176.617 95.2603 176.425 96.9188C175.954 100.934 175.361 104.722 174.802 107.079C171.363 121.847 163.28 134.486 151.759 143.162C148.407 145.694 147.132 147.544 147.656 149.168C148.058 150.355 149.768 151.193 153.068 151.804C155.459 152.24 163.437 152.24 167.208 151.786C182.483 149.988 195.82 143.581 206.661 132.828C211.811 127.713 215.721 122.424 218.968 116.174C221.849 110.657 222.722 108.161 226.038 95.9935C230.315 80.2996 231.886 75.6037 235.151 68.7256C236.198 66.5435 236.303 65.9499 235.692 65.9849C235.518 65.9849 231.572 66.9624 226.911 68.1321Z" fill="white"/>
<path d="M34.7963 119.749C27.1327 120.237 17.6709 121.826 8.43616 124.183C2.86736 125.597 0.999452 126.173 0.877252 126.504C0.842338 126.644 1.36605 126.958 2.27382 127.36C6.44605 129.21 9.90255 131.218 13.5336 133.941C17.444 136.874 19.5388 138.777 27.5516 146.702C40.2604 159.271 44.1009 162.396 51.2234 165.975C53.842 167.267 54.8894 167.703 57.7872 168.698C74.4762 174.424 95.6167 172.609 112.917 163.985C115.413 162.745 119.393 160.441 119.899 159.952C120.301 159.568 119.899 159.394 118.258 159.289C117.473 159.236 114.994 159.079 112.742 158.922C108.256 158.643 104.555 158.067 100.417 157.037C82.3842 152.515 66.3237 140.994 56.059 125.265C54.0689 122.227 53.6674 121.843 51.6249 121.18C47.4527 119.801 41.622 119.295 34.7963 119.749Z" fill="white"/>
<path d="M227.592 120.101C223.14 120.328 223.367 120.241 221.011 123.139C214.499 131.169 207.516 138.17 200.743 143.442C198.701 145.048 194.127 148.155 191.822 149.534C180.493 156.273 169.058 159.52 156.699 159.537C155.39 159.537 154.272 159.607 154.22 159.677C153.888 160.218 159.387 163.535 163.978 165.56C171.52 168.894 178.206 170.64 187.109 171.617C189.797 171.914 199.137 171.914 201.948 171.617C209.646 170.814 217.991 168.737 222.425 166.502C229.25 163.081 233.754 159.467 244.805 148.539C252.084 141.347 254.144 139.409 257.409 136.633C261.179 133.439 265.858 130.349 269.681 128.551C272.614 127.154 273.225 126.822 273.295 126.613C273.382 126.351 271.235 125.583 267.045 124.378C257.199 121.568 247.266 120.171 235.814 120.014C232.986 119.962 229.285 120.014 227.592 120.101Z" fill="white"/>
<path d="M314.9 77.75V56H361.85V77.75H314.9ZM314.9 118.85V98.45H360.35V118.85H314.9ZM298.1 56H322.4V161H298.1V56ZM386.963 140.75L388.763 121.4H440.813L442.463 140.75H386.963ZM414.413 94.55L399.713 128.45L400.913 134L387.863 161H359.213L414.413 49.4L469.763 161H440.963L428.363 135.05L429.263 128.6L414.413 94.55ZM480.766 56H506.116V139.25H548.266V161H480.766V56ZM560.014 56H586.264V161H560.014V56ZM621.964 56H651.664L609.064 105.2L653.914 161H623.164L578.914 105.95L621.964 56ZM664.897 56H690.697V161H664.897V56ZM739.194 113.45H765.444L798.294 161H768.594L739.194 113.45ZM712.944 56H738.294V161H712.944V56ZM728.844 77.45V56H751.194C760.194 56 767.694 57.45 773.694 60.35C779.694 63.25 784.244 67.3 787.344 72.5C790.444 77.6 791.994 83.55 791.994 90.35C791.994 97.05 790.444 103 787.344 108.2C784.244 113.3 779.694 117.3 773.694 120.2C767.694 123.1 760.194 124.55 751.194 124.55H728.844V104.9H749.394C752.794 104.9 755.694 104.4 758.094 103.4C760.594 102.3 762.494 100.75 763.794 98.75C765.094 96.65 765.744 94.15 765.744 91.25C765.744 88.35 765.094 85.9 763.794 83.9C762.494 81.8 760.594 80.2 758.094 79.1C755.694 78 752.794 77.45 749.394 77.45H728.844ZM810.063 56H836.313V161H810.063V56ZM872.013 56H901.713L859.113 105.2L903.963 161H873.213L828.963 105.95L872.013 56Z" fill="white"/>
</svg>
